ply
format ascii 1.0
comment Written with hapPLY (https://github.com/nmwsharp/happly)
element box 214
property double min_x
property double min_y
property double min_z
property double max_x
property double max_y
property double max_z
property int category
end_header
20.399988980385196 14.399999724529854 0 20.550011019614807 20.400000275470145 2.5 -1
20.399988980385192 8.5499997245298474 0 20.550011019614804 14.55000027547014 2.5 -1
20.399994490192849 5.6999997245197287 0 20.550005509807146 8.7000002754802566 2.5 -1
20.399994490192849 2.8499997245197282 0 20.550005509807146 5.8500002754802569 2.5 -1
20.399988980385192 -3.0000002754701529 0 20.550011019614804 3.0000002754701387 2.5 -1
20.399994490192849 -5.8500002754802711 0 20.550005509807146 -2.8499997245197424 2.5 -1
20.399994490192849 -8.7000002754802708 0 20.550005509807146 -5.6999997245197429 2.5 -1
20.399988980385192 -14.550000275470154 0 20.550011019614804 -8.5499997245298616 2.5 -1
20.399988980385192 -20.400000275470152 0 20.550011019614804 -14.399999724529859 2.5 -1
14.549999800991323 20.249992039230875 0 20.550000199008672 20.400007960769109 2.5 -1
8.6999998009913213 20.249992039230875 0 14.70000019900867 20.400007960769109 2.5 -1
2.8499998009913212 20.249992039230875 0 8.8500001990086705 20.400007960769109 2.5 -1
-3.0000001990086784 20.249992039230875 0 3.0000001990086713 20.400007960769109 2.5 -1
-8.8500001990086776 20.249992039230875 0 -2.8499998009913283 20.400007960769109 2.5 -1
-14.700000199008677 20.249992039230875 0 -8.6999998009913284 20.400007960769109 2.5 -1
-20.550000199008679 20.249992039230875 0 -14.54999980099133 20.400007960769109 2.5 -1
-20.550011019614811 14.399999724529845 0 -20.399988980385199 20.400000275470138 2.5 -1
-20.550011019614811 8.5499997245298474 0 -20.399988980385199 14.55000027547014 2.5 -1
-20.550005509807153 5.6999997245197287 0 -20.399994490192856 8.7000002754802566 2.5 -1
-20.550005509807153 2.8499997245197282 0 -20.399994490192856 5.8500002754802569 2.5 -1
-20.550011019614811 -3.0000002754701529 0 -20.399988980385199 3.0000002754701387 2.5 -1
-20.550005509807153 -5.8500002754802711 0 -20.399994490192856 -2.8499997245197424 2.5 -1
-20.550005509807153 -8.7000002754802708 0 -20.399994490192856 -5.6999997245197429 2.5 -1
-20.550011019614811 -14.550000275470154 0 -20.399988980385199 -8.5499997245298616 2.5 -1
-20.550011019614811 -20.400000275470152 0 -20.399988980385199 -14.399999724529859 2.5 -1
-20.550000000000004 -20.400000000000006 0 20.449999999999996 -20.250000000000007 2.5 -1
-14.700007346409706 16.399999724523099 0 -14.549992653590301 20.400000275476884 2.5 -1
-14.700000000000003 16.399999999999995 0 -10.968580000000003 16.549999999999994 2.5 -1
-10.068580000000004 16.399999999999995 0 -8.7000000000000028 16.549999999999994 2.5 -1
-9.2059220000000028 16.399999999999995 0 -8.6999980000000026 16.549999999999994 2.5 -1
-10.968576500000005 16.399999999999995 2 -10.105923500000003 16.549999999999994 2.5 -1
-8.8500146928199133 8.549999724536594 0 -8.6999853071800946 16.550000275463393 2.5 -1
-14.700000199008677 8.5499920392308777 0 -8.6999998009913284 8.7000079607691081 2.5 -1
-14.699987142451937 8.5500017245365942 0 -14.549985307187443 9.0496382755139901 2.5 -1
-14.700014692812566 9.9496377245271521 0 -14.549990448337539 16.549998275463395 2.5 -1
-14.700014692801545 10.812284724521332 0 -14.549993617016902 16.549995275463392 2.5 -1
-14.699990311136808 9.0496332245332241 2 -14.549987142436418 9.9122867755081714 2.5 -1
-11.200000199014838 8.5499966830130152 0 -8.699999800985168 8.7000033169869706 2.5 -1
-11.200007346409706 8.5499997245231025 0 -11.049992653590301 12.550000275476885 2.5 -1
-11.200001000000004 12.399999999999993 0 -10.775059000000002 12.549999999999992 2.5 -1
-9.875059000000002 12.399999999999993 0 -8.6999990000000036 12.549999999999992 2.5 -1
-10.775058000000001 12.399999999999993 2 -9.8750580000000028 12.549999999999992 2.5 -1
-8.8499950000000034 8.5499999999999936 0 -7.7613850000000042 8.6999999999999922 2.5 -1
-6.8613890000000026 8.5499999999999936 0 -2.8499990000000035 8.6999999999999922 2.5 -1
-7.7613900000000031 8.5499999999999936 2 -6.8613900000000028 8.6999999999999922 2.5 -1
-3.0000000000000036 8.5499999999999936 0 2.9999999999999964 8.6999999999999922 2.5 -1
2.8499999999999961 8.5499999999999936 0 6.9350799999999957 8.6999999999999922 2.5 -1
7.835079999999996 8.5499999999999936 0 8.8499999999999961 8.6999999999999922 2.5 -1
6.9350799999999957 8.5499999999999936 2 7.835079999999996 8.6999999999999922 2.5 -1
8.6999889803851911 8.5499997245298474 0 8.8500110196148025 14.55000027547014 2.5 -1
8.6999889803851911 14.399999724529845 0 8.8500110196148025 20.400000275470138 2.5 -1
8.6999999999999957 8.5499999999999936 0 12.699999999999996 8.6999999999999922 2.5 -1
12.549993868392686 8.549999724536594 0 12.700014692819906 14.219280275479118 2.5 -1
12.549985307180089 15.119279724492278 0 12.699990562507084 16.550000275463393 2.5 -1
12.54998530716907 15.997616724486353 0 12.699987336195132 16.550003275463393 2.5 -1
12.549990642073389 14.219280724498349 2 12.699993868388002 15.097619275473191 2.5 -1
12.550005389635579 16.400003724523099 0 12.700007346395005 16.932716275500272 2.5 -1
12.549992653586623 17.832710724513433 0 12.700002083768341 20.400001275476882 2.5 -1
12.550002083773025 16.932709724519505 2 12.700005389656608 17.8327102754942 2.5 -1
8.6999998009878006 16.399994692820673 0 12.700000199012191 16.550005307179315 2.5 -1
15.399999999999999 8.5499999999999936 0 20.549999999999997 8.6999999999999922 2.5 -1
15.399565197021875 16.411956829894258 0 18.479440986089774 16.581868331382822 2.5 -1
19.378448967222063 16.399531713892852 0 20.400427803124536 16.556132552270515 2.5 -1
18.478472792812646 16.406135657546606 2 19.379424160352769 16.561953679342487 2.5 -1
15.400005473476485 16.431388724522996 0 15.550007288780781 16.92559127550043 2.5 -1
15.399992711200843 17.825585724513591 0 15.550002167609248 20.40001627547699 2.5 -1
15.400002167595565 16.925589724519664 2 15.550005473479148 17.82559027549436 2.5 -1
15.399989898686467 8.5499997245281616 0 15.550010101313525 14.050000275471826 2.5 -1
15.399999999999995 13.899999999999993 0 20.399999999999995 14.049999999999992 2.5 -1
17.249992711204516 16.431384724522996 0 17.400007288795475 20.400015275476992 2.5 -1
-14.700000315682091 7.1140577245101904 0 -14.5499944902002 8.6999982754802581 2.5 -1
-14.700005509799807 5.7000017245197299 0 -14.550003621567695 6.2140582754970275 2.5 -1
-14.700003621574032 6.2140557245162613 2 -14.550000315690449 7.1140562754909551 2.5 -1
-20.550000199008679 5.6999920392308772 0 -14.54999980099133 5.8500079607691093 2.5 -1
-14.700000381538986 4.2461287245103101 0 -14.549994490196527 5.8499992754802559 2.5 -1
-14.700005509821846 2.8499957245197289 0 -14.550003687442956 3.3461242754971479 2.5 -1
-14.700003687427252 3.3461277245163816 2 -14.550000381543668 4.2461282754910759 2.5 -1
-20.550000199008679 2.8499920392308766 0 -14.54999980099133 3.0000079607691088 2.5 -1
-14.700005670844138 -1.5438412754799764 0 -14.549988980388871 2.999999275470139 2.5 -1
-14.700011019612973 -2.999999775470152 0 -14.550008976727906 -2.4438402244931376 2.5 -1
-14.700008976725059 -2.4438402754739035 2 -14.550005670841475 -1.5438397244992093 2.5 -1
-20.550000199008679 -3.000007960769123 0 -14.54999980099133 -2.8499920392308908 2.5 -1
-14.700000293154325 -4.429809275489851 0 -14.549994490189182 -2.8499987245197427 2.5 -1
-14.70000550979246 -5.8499962754802706 0 -14.550003599021563 -5.3298037245030141 2.5 -1
-14.700003599035245 -5.3298082754837797 2 -14.550000293151662 -4.4298077245090859 2.5 -1
-20.550000199008679 -5.8500079607691235 0 -14.54999980099133 -5.6999920392308914 2.5 -1
-15.700000376646276 -8.7000012754802718 0 -15.549994490189182 -7.0974607245103156 2.5 -1
-15.700005509810826 -6.1974612754971536 0 -15.55000368253188 -5.6999987245197437 2.5 -1
-15.700003682527196 -7.0974622754910817 2 -15.550000376643613 -6.1974617245163879 2.5 -1
-16.700000000000003 -8.7000000000000064 0 -15.550000000000004 -8.5500000000000078 2.5 -1
-16.700111019614809 -20.399600275470153 0 -16.550088980385198 -14.39959972452986 2.5 -1
-16.700010237899974 -14.549870209026116 0 -14.061723753861539 -14.3995800002342 2.5 -1
-13.161745259306478 -14.550019999215815 0 -12.699994762100001 -14.399969209383416 2.5 -1
-14.06173825386152 -14.549969209245916 2 -13.161721759306552 -14.399870210153615 2.5 -1
-12.85001101961481 -20.400000275470152 0 -12.699988980385198 -14.399999724529859 2.5 -1
-12.850000000000003 -20.400000000000006 0 -8.8500000000000032 -20.250000000000007 2.5 -1
-9.00001101961481 -20.400000275470152 0 -8.8499889803851985 -14.399999724529859 2.5 -1
-9.3817636990244058 -14.550005307188616 0 -8.8499963009878098 -14.400003896097662 2.5 -1
-12.849998199012196 -14.550001507854379 0 -10.281767800982768 -14.399994692825992 2.5 -1
-10.281770199021238 -14.550003896079886 2 -9.3817698009859392 -14.400001507849598 2.5 -1
-11.250050199017302 5.6999946928206713 0 -8.6999998009878077 5.8500014596067951 2.5 -1
-12.700004699012196 5.7000038478527317 0 -12.150055300975664 5.8500053071912577 2.5 -1
-12.150050199014132 5.7000014596073232 2 -11.250049800978832 5.8500038478376091 2.5 -1
-12.700005509807154 2.8499997245197282 0 -12.549994490192853 5.8500002754802569 2.5 -1
-12.700011019614809 -3.0000002754701529 0 -12.549988980385198 3.0000002754701387 2.5 -1
-12.700005509807154 -5.8500002754802711 0 -12.549994490192853 -2.8499997245197424 2.5 -1
-12.699997000000003 -5.8500000000000076 0 -12.167983000000003 -5.7000000000000073 2.5 -1
-11.267988000000003 -5.8500000000000076 0 -8.6999980000000043 -5.7000000000000073 2.5 -1
-12.167990000000001 -5.8500000000000076 2 -11.267990000000003 -5.7000000000000073 2.5 -1
-8.8500055098071542 2.8499997245197282 0 -8.6999944901928536 5.8500002754802569 2.5 -1
-8.8500110196148096 -3.0000002754701529 0 -8.6999889803851982 3.0000002754701387 2.5 -1
-8.8500055098071542 -5.8500002754802711 0 -8.6999944901928536 -2.8499997245197424 2.5 -1
-16.700007346409706 -12.550000275476899 0 -16.549992653590301 -8.5499997245231167 2.5 -1
-20.550000199012199 -12.55000530717933 0 -16.549999800987809 -12.399994692820684 2.5 -1
-16.699988981882736 -13.147596525675896 0 -16.549963801347044 -12.399797475119088 2.5 -1
-16.70003619865296 -14.549802524880926 0 -16.550019287852365 -14.047591474184882 2.5 -1
-16.700019287767322 -14.04759652516565 2 -16.549988981967775 -13.147591474695131 2.5 -1
-12.700000000000003 -8.7000000000000064 0 -8.7000000000000028 -8.5500000000000078 2.5 -1
-12.699994850968539 -9.1482187754998474 0 -12.549992653595814 -8.5500012245231165 2.5 -1
-12.700007346402359 -12.549998275476899 0 -12.549998156852304 -10.048217724513009 2.5 -1
-12.699998156847622 -10.048217275493776 2 -12.549994850964039 -9.1482167245190809 2.5 -1
-12.700000000000003 -12.550000000000006 0 -8.7000000000000028 -12.400000000000007 2.5 -1
-8.850007346409706 -12.550000275476899 0 -8.6999926535903018 -8.5499997245231167 2.5 -1
20.399994490192849 5.6999997245197287 0 20.550005509807146 8.7000002754802566 2.5 -1
14.549999800991323 5.6999920392308772 0 20.550000199008672 5.8500079607691093 2.5 -1
13.931302800972905 5.6999920392388379 0 14.699997199008667 5.849994079036863 2.5 -1
8.699997800991321 5.6999964672549366 0 13.031308199014545 5.8500079607744171 2.5 -1
13.031309800976075 5.6999940790188157 2 13.931310199011374 5.8499964672491016 2.5 -1
8.6999944901928465 2.8499997245197282 0 8.8500055098071471 5.8500002754802569 2.5 -1
8.6999999999999957 2.8499999999999925 0 14.699999999999996 2.9999999999999929 2.5 -1
8.6999999999999957 2.8499999999999925 0 10.699999999999996 2.9999999999999929 2.5 -1
10.550003543087826 2.8499962245197286 0 10.700005509820002 3.3854237754968826 2.5 -1
10.549994490196521 4.2854287245100453 0 10.700000237182017 5.8499992754802568 2.5 -1
10.550000237190375 3.3854267245161167 2 10.700003543073958 4.2854272754908109 2.5 -1
14.549988980385191 -3.0000002754701529 0 14.700011019614802 3.0000002754701387 2.5 -1
14.549994490192846 -5.8500002754802711 0 14.700005509807147 -2.8499997245197424 2.5 -1
10.093120800986416 -5.8500079607717765 0 14.700001199008671 -5.6999957360025579 2.5 -1
8.6999988009913238 -5.8499933477712158 0 9.1931211990280559 -5.6999920392282384 2.5 -1
9.1931198009895887 -5.8499957359993759 2 10.093120199024888 -5.6999933477690901 2.5 -1
8.6999889803851911 -5.850000275470153 0 8.8500110196148025 0.15000027547013861 2.5 -1
8.6999944901928465 -2.7548027148327492e-07 0 8.8500055098071471 3.0000002754802568 2.5 -1
2.8499950532143776 -12.896722275481308 0 3.000011019607455 -8.5500017245298618 2.5 -1
2.8499889803907017 -14.549998775470153 0 2.9999917473306112 -13.796721224494467 2.5 -1
2.8499917473371323 -13.796720275475234 2 2.9999950532207138 -12.896719724500539 2.5 -1
2.8500020477388825 -16.842520275494149 0 3.0000110196148007 -14.399999724529861 2.5 -1
2.8499889803851914 -20.400000275470148 0 2.999998741853279 -17.742519724507311 2.5 -1
2.8499987418579633 -17.742519275488078 2 3.0000020477415448 -16.842518724513383 2.5 -1
2.8500049999999959 -8.7000000000000064 0 4.5837149999999962 -8.5500000000000078 2.5 -1
5.4837149999999957 -8.7000000000000064 0 6.4310649999999958 -8.5500000000000078 2.5 -1
7.3310649999999962 -8.7000000000000064 0 8.8499949999999963 -8.5500000000000078 2.5 -1
4.5837139999999961 -8.7000000000000064 2 5.4837139999999964 -8.5500000000000078 2.5 -1
6.431059999999996 -8.7000000000000064 2 7.3310599999999964 -8.5500000000000078 2.5 -1
8.6999926206600104 -12.567965275476837 0 8.8500073793399832 -8.5500347245231758 2.5 -1
8.6999926865389448 -16.400030275476961 0 8.8500073134610489 -12.417969724523056 2.5 -1
8.6999926535902947 -20.2500002754769 0 8.8500073464096989 -16.249999724523114 2.5 -1
2.8499998009913212 -12.567907960769123 0 8.8500001990086705 -12.417892039230892 2.5 -1
2.8499998009913212 -16.400007960769123 0 8.8500001990086705 -16.249992039230889 2.5 -1
-3.0000055098071532 2.8499997245197282 0 -2.8499944901928536 5.8500002754802569 2.5 -1
-3.0000000000000036 2.8499999999999925 0 5.9999999999999964 2.9999999999999929 2.5 -1
5.849994490192846 2.8499997245197282 0 6.0000055098071465 5.8500002754802569 2.5 -1
-3.0000001990033986 5.6999880588461869 0 6.0000001990033915 5.8500119411537996 2.5 -1
8.700001999999996 -8.7000000000000064 0 9.3994379999999946 -8.5500000000000078 2.5 -1
10.299437999999997 -8.7000000000000064 0 14.699997999999995 -8.5500000000000078 2.5 -1
9.3994399999999967 -8.7000000000000064 2 10.299439999999995 -8.5500000000000078 2.5 -1
14.549999800991323 -20.400007960769123 0 20.550000199008672 -20.249992039230889 2.5 -1
14.549988980385191 -20.400000275470152 0 14.700011019614802 -14.399999724529859 2.5 -1
14.252702800977055 -14.550003980376472 0 14.69999719901395 -14.400002793442207 2.5 -1
11.699997800986042 -14.550000405224132 0 13.352708199018695 -14.399996019610274 2.5 -1
13.352705800980225 -14.550002793449641 2 14.252706199015524 -14.400000405219354 2.5 -1
11.699988980385191 -20.400000275470152 0 11.850011019614803 -14.399999724529859 2.5 -1
8.6999998009913213 -11.550007960769122 0 14.70000019900867 -11.399992039230892 2.5 -1
12.549994490192846 -11.550000275480272 0 12.700005509807147 -8.5499997245197434 2.5 -1
8.6999963267953984 -13.400000275483645 0 8.8500036732045952 -11.39999972451637 2.5 -1
8.6999999999999957 -13.400000000000006 0 11.699999999999996 -13.250000000000007 2.5 -1
11.549996326795398 -13.400000275483645 0 11.700003673204595 -11.39999972451637 2.5 -1
12.549999741403189 -8.6999992754802715 0 12.700005509803473 -7.1295987245100987 2.5 -1
12.54999449019652 -6.2295992754969367 0 12.699996435517585 -5.7000007245197439 2.5 -1
12.549996435514922 -7.1295982754908644 2 12.699999741398505 -6.2295977245161707 2.5 -1
-3.2500000000000031 -8.7000000000000064 0 -2.7500000000000031 -8.5500000000000078 2.5 -1
-3.2500004591501352 -8.7000002754895451 0 -3.0999995408498715 -8.4499997245104677 2.5 -1
-3.2500000000000031 -8.6000000000000068 0 -2.7500000000000031 -8.4500000000000082 2.5 -1
-2.9000004591501356 -8.7000002754895451 0 -2.7499995408498719 -8.4499997245104677 2.5 -1
-3.2500000000000031 -5.8500000000000076 0 -2.7500000000000031 -5.7000000000000073 2.5 -1
-3.2500004591501352 -5.8500002754895464 0 -3.0999995408498715 -5.5999997245104671 2.5 -1
-3.2500000000000031 -5.7500000000000071 0 -2.7500000000000031 -5.6000000000000068 2.5 -1
-2.9000004591501356 -5.8500002754895464 0 -2.7499995408498719 -5.5999997245104671 2.5 -1
2.8495204762611381 -5.8527269338586256 2.2204460492503131e-16 3.3482395237388545 -5.699513066141388 2.5 -1
2.8499995408498644 -5.8500002754895464 0 3.0000004591501281 -5.5999997245104671 2.5 -1
2.8499999999999965 -5.7500000000000071 0 3.3499999999999965 -5.6000000000000068 2.5 -1
3.1961266576561451 -5.8538734421970533 0 3.351633342343848 -5.5983665578029607 2.5 -1
5.8499926535902942 -12.567900275476898 0 6.0000073464096983 -8.5678997245231159 2.5 -1
-11.200003673204602 10.549999724516356 0 -11.049996326795405 12.550000275483631 2.5 -1
-11.200000000000003 10.549999999999994 0 -8.7000000000000028 10.699999999999992 2.5 -1
8.6999998009878006 11.39999469282067 0 12.700000199012191 11.550005307179315 2.5 -1
14.5 -20.25 -1 20 -20 0 -1
14.5 5 -1 20 5.25 0 -1
14.25 -20.25 -1 14.5 5.25 0 -1
20 -20.25 -1 20.25 5.25 0 -1
-12.399999999999999 -5.8499999999999996 -1 -9 -5.5999999999999996 0 -1
-12.399999999999999 5.5999999999999996 -1 -9 5.8499999999999996 0 -1
-12.65 -5.8499999999999996 -1 -12.4 5.8499999999999996 0 -1
-9 -5.8499999999999996 -1 -8.75 5.8499999999999996 0 -1
-20 -3.04 -1 -14.700000000000001 -2.79 0 -1
-20 2.6000000000000001 -1 -14.700000000000001 2.8500000000000001 0 -1
-20.25 -3.04 -1 -20 2.8499999999999996 0 -1
-14.699999999999999 -3.04 -1 -14.449999999999999 2.8499999999999996 0 -1
-12 -20.25 -1 -9.5 -20 0 -1
-12 -15 -1 -9.5 -14.75 0 -1
-12.25 -20.25 -1 -12 -14.75 0 -1
-9.5 -20.25 -1 -9.25 -14.75 0 -1
-20 -20.25 -1 -16.799999999999997 -20 0 -1
-20 -13 -1 -16.799999999999997 -12.75 0 -1
-20.25 -20.25 -1 -20 -12.75 0 -1
-16.800000000000001 -20.25 -1 -16.550000000000001 -12.75 0 -1
